<?xml version="1.0" encoding="iso-8859-1"?>
<!-- Uploaded to: SVG Repo, www.svgrepo.com, Generator: SVG Repo Mixer Tools -->
<svg height="800px" width="800px" version="1.1" id="Layer_1" xmlns="http://www.w3.org/2000/svg" xmlns:xlink="http://www.w3.org/1999/xlink" 
	 viewBox="0 0 512 512" xml:space="preserve">
<path style="fill:#5195AF;" d="M256,64.703v382.593c105.65,0,191.297-85.647,191.297-191.297S361.65,64.703,256,64.703z"/>
<path style="fill:#88ACB5;" d="M396.659,256c0-96.328-62.975-174.418-140.659-174.418V64.703
	C150.35,64.703,64.703,150.35,64.703,256S150.35,447.297,256,447.297v-16.879C333.684,430.418,396.659,352.328,396.659,256z"/>
<path style="fill:#FFCD9C;" d="M256,149.099v213.802c59.04,0,106.901-47.861,106.901-106.901S315.04,149.099,256,149.099z"/>
<path style="fill:#FFFFFF;" d="M329.143,256c0-59.04-32.748-106.901-73.143-106.901c-59.04,0-106.901,47.861-106.901,106.901
	S196.96,362.901,256,362.901C296.395,362.901,329.143,315.04,329.143,256z"/>
<g>
	<polygon style="fill:#C7E7EB;" points="297.654,0 214.053,0 209.057,53.896 256,81.483 302.635,53.736 	"/>
	<polygon style="fill:#C7E7EB;" points="104.435,45.526 45.319,104.642 79.898,146.285 132.599,132.598 145.954,80.003 	"/>
	<polygon style="fill:#C7E7EB;" points="0,214.346 0,297.947 53.896,302.943 81.483,256 53.736,209.365 	"/>
	<polygon style="fill:#C7E7EB;" points="45.526,407.566 104.642,466.681 146.285,432.102 132.598,379.401 80.003,366.046 	"/>
	<polygon style="fill:#C7E7EB;" points="214.346,512 297.947,512 302.943,458.104 256,430.517 209.365,458.264 	"/>
	<polygon style="fill:#C7E7EB;" points="407.566,466.474 466.681,407.358 432.102,365.715 379.401,379.402 366.046,431.997 	"/>
	<polygon style="fill:#C7E7EB;" points="512,297.654 512,214.053 458.104,209.057 430.517,256 458.264,302.635 	"/>
	<polygon style="fill:#C7E7EB;" points="466.474,104.435 407.358,45.319 365.715,79.898 379.402,132.599 431.997,145.954 	"/>
</g>
<path style="fill:#A7CBCF;" d="M256,47.825c114.789,0,208.176,93.387,208.176,208.176S370.789,464.177,256,464.177l-22.505-16.879
	L256,430.419c96.177,0,174.418-78.24,174.418-174.418S352.177,81.584,256,81.584l-22.505-16.879L256,47.825z"/>
<path style="fill:#B7D9DD;" d="M256,47.825v33.758c-96.177,0-174.418,78.24-174.418,174.418S159.823,430.419,256,430.419v33.758
	c-114.789,0-208.176-93.387-208.176-208.176S141.211,47.825,256,47.825z"/>
<g>
	<path style="fill:#2F5E88;" d="M294.677,247.56c-4.662,0-8.44-3.778-8.44-8.44v-16.879c0-4.662,3.778-8.44,8.44-8.44
		c4.662,0,8.44,3.778,8.44,8.44v16.879C303.116,243.783,299.339,247.56,294.677,247.56z"/>
	<path style="fill:#2F5E88;" d="M217.323,247.56c-4.662,0-8.44-3.778-8.44-8.44v-16.879c0-4.662,3.778-8.44,8.44-8.44
		c4.662,0,8.44,3.778,8.44,8.44v16.879C225.763,243.783,221.984,247.56,217.323,247.56z"/>
</g>
<path style="fill:#FF0F47;" d="M256,306.637c-20.127,0-38.344-11.925-46.41-30.378c-1.867-4.272,0.082-9.246,4.353-11.113
	c4.269-1.87,9.246,0.081,11.113,4.353c5.379,12.307,17.525,20.259,30.944,20.259c13.419,0,25.565-7.952,30.944-20.259
	c1.867-4.27,6.844-6.222,11.113-4.353c4.27,1.867,6.219,6.842,4.353,11.113C294.344,294.713,276.127,306.637,256,306.637z"/>
</svg>